<?xml version="1.0" encoding="UTF-8"?>
<svg id="Layer_1" xmlns="http://www.w3.org/2000/svg" xmlns:xlink="http://www.w3.org/1999/xlink" version="1.1" viewBox="0 0 494.82 198.86">
  <!-- Generator: Adobe Illustrator 29.5.1, SVG Export Plug-In . SVG Version: 2.1.0 Build 141)  -->
  <defs>
    <style>
      .st0, .st1, .st2 {
        fill: none;
      }

      .st1 {
        stroke: #231f20;
        stroke-miterlimit: 10;
      }

      .st3, .st4, .st5 {
        fill: #4480c2;
      }

      .st4, .st6, .st7, .st2, .st5, .st8 {
        stroke-linejoin: round;
        stroke-width: 3px;
      }

      .st4, .st6, .st7, .st2, .st8 {
        stroke: #19508e;
      }

      .st6, .st9 {
        fill: #fff;
      }

      .st10, .st7 {
        fill: #90b7e1;
      }

      .st5 {
        stroke: #1a508e;
      }

      .st11 {
        fill: #f7fafd;
      }

      .st8 {
        fill: url(#Generated_Pattern);
      }
    </style>
    <pattern id="Generated_Pattern" data-name="Generated Pattern" x="0" y="0" width="256" height="256" patternTransform="translate(-6129.73 -6368.66) scale(.22)" patternUnits="userSpaceOnUse" viewBox="0 0 256 256">
      <g>
        <rect class="st0" width="256" height="256"/>
        <path class="st11" d="M256,114.75v5.75c-1.98.21-4.68.26-6.62,0-12.49-1.65-17.22-12.14-32-10-9.28,1.35-15.14,9.43-25,10.25-14.31,1.19-19.13-9.43-31.25-10.5-15.11-1.34-20.57,9.73-33.75,10.5-19.41,1.13-24.81-18.35-47-7-1.84.94-3.93,2.83-5.75,3.75-22.19,11.18-27.65-8.79-47-7.25-10.65.85-16.9,9.93-27.62,10.25v-5.75c10.76-.09,17.16-9.42,27.88-10.25,15.68-1.21,20.99,11.83,36.75,10.5,9.62-.81,15.08-8.4,24-10,15.64-2.81,20.94,9.13,34.75,10,15.86,1,22.07-11.78,37.5-10.5,12.42,1.03,16.85,11.75,31.75,10.5,9.62-.81,15.12-8.39,24-10,15.21-2.76,19.81,7.97,32.75,9.75,2.01.28,4.62.39,6.62,0Z"/>
        <path class="st11" d="M256,146.75v5.75c-2.02.17-4.64.26-6.62,0-11.53-1.49-16.92-11.2-30-10.25-10.56.76-16.73,9.71-27.25,10.5-14.19,1.07-18.91-9.45-31-10.5-15.14-1.32-20.69,9.86-34,10.5-19.32.93-24.59-18.29-46.75-7-1.87.95-3.93,2.83-5.75,3.75-22.15,11.18-27.65-8.79-47-7.25-10.65.85-16.9,9.93-27.62,10.25v-5.75c10.82-.13,17.16-9.42,27.88-10.25,15.68-1.21,20.99,11.83,36.75,10.5,9.58-.81,15.09-8.39,24-10,15.58-2.82,20.95,9.13,34.75,10,15.82,1,22.1-11.75,37.5-10.5,12.39,1.01,16.85,11.75,31.75,10.5,9.64-.81,15.11-8.39,24-10,15.16-2.75,19.88,7.99,32.75,9.75,1.97.27,4.66.36,6.62,0Z"/>
        <path class="st11" d="M256,210.75v5.75c-1.98.21-4.68.26-6.62,0-11.62-1.54-16.81-11.21-30-10.25-12.4.9-17.59,11.75-32.25,10.5-8.82-.75-14.03-7.81-22-9.75-18.07-4.39-23.15,9.1-38.25,9.75s-21.63-12.35-37.25-10.25c-9.47,1.27-15.41,9.41-25.25,10.25-15.31,1.3-20.76-11.77-36.75-10.5-10.65.85-16.9,9.93-27.62,10.25v-5.75c10.68-.07,17.11-9.37,27.62-10.25,15.83-1.33,21.19,11.83,37,10.5,9.55-.8,15.12-8.4,24-10,15.61-2.81,20.96,9.13,34.75,10,15.83,1,22.08-11.76,37.5-10.5,12.47,1.02,16.92,11.87,32,10.5,9.34-.85,14.99-8.41,23.75-10,15.22-2.76,19.83,7.99,32.75,9.75,1.97.27,4.66.36,6.62,0Z"/>
        <path class="st11" d="M256,178.75v5.75c-1.97.2-4.69.26-6.62,0-11.57-1.56-16.95-11.19-30-10.25-10.52.76-16.67,9.64-27,10.5-14.33,1.19-19.04-9.44-31.25-10.5-16.47-1.43-22.45,12.44-39.75,10.25-12.46-1.58-16.92-11.98-31.75-10-9.51,1.27-15.39,9.43-25.25,10.25-15.36,1.28-20.71-11.74-36.75-10.5-10.65.83-16.89,9.94-27.62,10.25v-5.75c10.5,0,17.28-9.39,27.62-10.25,15.9-1.32,21.26,11.93,37.25,10.5,9.25-.83,14.99-8.42,23.75-10,15.62-2.81,20.98,9.11,34.75,10,15.86,1.02,22.03-11.76,37.5-10.5,12.5,1.02,16.91,11.87,32,10.5,9.36-.85,15.01-8.42,23.75-10,15.18-2.75,19.96,8.07,33,9.75,1.98.26,4.4.36,6.38,0Z"/>
        <path class="st11" d="M256,50.75v5.75c-1.99.13-4.67.26-6.62,0-11.52-1.52-16.96-11.19-30-10.25-10.48.76-16.71,9.65-27,10.5-14.31,1.19-19.16-9.45-31.25-10.5-16.42-1.43-22.49,12.46-39.75,10.25-12.46-1.6-16.98-11.99-31.75-10-9.59,1.29-15.36,9.48-25.5,10.25-15.16,1.15-20.61-11.77-36.5-10.5-10.64.85-16.91,9.95-27.62,10.25v-5.75c10.49,0,17.29-9.38,27.62-10.25,17.48-1.47,22.67,14.91,42,9.5,6.68-1.87,11.5-7.65,19-9,15.57-2.79,20.97,9.13,34.75,10,15.81.99,22.12-11.75,37.5-10.5,12.51,1.02,16.88,11.85,32,10.5,9.37-.84,15-8.44,23.75-10,15.23-2.71,19.91,8.06,33,9.75,1.98.26,4.4.36,6.38,0Z"/>
        <path class="st11" d="M256,82.75v5.75c-1.97.17-4.69.25-6.62,0-11.55-1.5-16.92-11.21-30-10.25-10.49.77-16.73,9.64-27,10.5-14.38,1.2-19.08-9.43-31.25-10.5-15.11-1.33-20.58,9.73-33.75,10.5-19.41,1.13-24.78-18.34-47-7-3.73,1.9-6.76,4.82-11,6-18.88,5.26-24.19-10.89-41.75-9.5-10.65.85-16.9,9.93-27.62,10.25v-5.75c10.76-.09,17.16-9.42,27.88-10.25,15.68-1.21,20.99,11.83,36.75,10.5,9.57-.8,15.16-8.42,24-10,15.64-2.79,21.07,9.24,35,10,15.75.86,21.85-11.75,37.25-10.5,12.39,1.01,16.82,11.73,31.75,10.5,9.65-.8,15.12-8.41,24-10,15.18-2.72,19.9,8.03,33,9.75,1.94.25,4.45.39,6.38,0Z"/>
        <path class="st11" d="M256,125.5v5.75c-1.76-.11-3.62.16-5.38,0-12.24-1.09-17.73-11.07-31.25-10.25-10.9.66-16.83,9.87-28,10.5-16.31.92-21.53-15.11-41.25-9.5-5.65,1.61-10.08,6.27-15.75,8-20.44,6.24-26.2-10.21-43.25-9-10.68.76-16.77,9.86-27.5,10.5-14.84.88-20.13-11.94-36.5-10.5-10.13.89-16.8,9.93-27.12,10.25v-5.75c10.45-.07,17.13-9.4,27.38-10.25,16.05-1.33,21.68,11.64,36.75,10.5,10.66-.81,16.73-9.83,27.5-10.5,13.1-.81,18.37,8.89,30.25,10.25,17.16,1.96,22.92-11.68,39.25-10.25,9.76.85,15.63,8.94,24.75,10.25,15.85,2.27,20.64-9.43,33.75-10.25s18.33,8.72,30.25,10.25c1.85.24,4.25.18,6.12,0Z"/>
        <path class="st11" d="M256,168.25v5.75c-2.22-.04-4.68.06-6.88-.25-12.12-1.73-16.74-11.53-31-10-9.52,1.02-15.58,9.4-25.5,10.25-14.97,1.28-19.4-9.55-32-10.5-14.45-1.09-20.15,9.72-33,10.5-19.82,1.2-24.99-18.26-47.5-6.75-3.04,1.55-5.69,4.07-9,5.25-19.67,7.02-25.39-10.08-42.75-9-11.21.7-17.32,10-28.38,10.25v-5.5c10.27-.12,16.72-9.24,26.62-10.25,17.08-1.75,21.91,11.8,38.5,10.25,9.77-.91,15.64-9.39,25.75-10.25,13.87-1.18,19.35,9.27,31.75,10.25,16.98,1.34,22.49-12.06,39.25-10.25,12.2,1.32,15.82,11.72,31.25,10.25,9.07-.86,13.79-7.6,21.75-9.5,17.04-4.06,21.45,8.2,35.75,9.5,1.74.16,3.62-.12,5.38,0Z"/>
        <path class="st11" d="M256,157.5v5.75c-1.75-.12-3.64.16-5.38,0-12.18-1.12-17.73-11.07-31.25-10.25-10.95.67-16.97,10-28.25,10.5-13.14.58-18.28-9.45-29.75-10.5-16.35-1.49-22.32,11.7-39,10.25-11.94-1.04-17.39-11.07-31-10.25-10.84.65-16.93,9.89-27.75,10.5-14.89.83-20.12-11.92-36.5-10.5-10.16.88-16.68,9.87-27.12,10.25v-5.75c10.44-.05,17.14-9.4,27.38-10.25,18.47-1.53,24.53,16.66,44.75,8.5,3-1.21,5.43-3.55,8.25-5,22.02-11.3,27.42,7.81,46.75,7,15.05-.63,19.81-14.14,38-9.75,7.54,1.82,12.69,8.37,20.75,9.5,15.87,2.23,20.65-9.44,33.75-10.25s18.4,9.02,30.25,10.25c1.93.2,4.16-.15,6.12,0Z"/>
        <path class="st11" d="M256,29.5v5.75c-1.75-.12-3.64.16-5.38,0-12.17-1.12-17.64-10.95-31-10.25-10.75.57-17.43,9.97-28.25,10.5-16.42.8-21.67-15.13-41.25-9.5-5.64,1.62-10.09,6.27-15.75,8-20.35,6.21-25.93-9.88-42.75-9-11.12.58-17.21,10.02-28.5,10.5-14.51.62-19.62-11.81-35.75-10.5-10.36.84-16.85,9.81-27.38,10.25v-5.75c10.36-.06,17.21-9.41,27.38-10.25,16.13-1.34,21.74,11.75,37,10.5,9.85-.81,15.84-8.98,25.25-10.25,14.83-2,19.4,8.52,32.25,10,17.06,1.97,22.9-11.57,39-10.25,12.14.99,17.23,11.53,31.25,10.5,12.11-.89,17.54-11.52,31.5-10.5,8.81.64,13.7,7.15,21.5,9.25,3.48.94,7.27,1.38,10.88,1Z"/>
        <path class="st11" d="M256,61.5v5.75c-1.69-.1-3.44.14-5.12,0-12.43-1.04-18.09-11.23-31.75-10.25-10.71.77-16.74,9.95-27.75,10.5-13.38.66-18.41-9.42-30-10.5-16.36-1.53-22.3,11.7-39,10.25-11.98-1.04-17.48-11.09-31-10.25-10.94.68-17.03,9.98-28,10.5-14.73.7-19.97-11.92-36.25-10.5-10.03.88-16.84,9.91-27.12,10.25v-5.75c10.45-.04,17.13-9.4,27.38-10.25,16.06-1.33,21.55,11.58,36.75,10.5,10.64-.76,16.67-9.83,27.5-10.5,12.86-.8,17.47,8.09,28.5,10,18.35,3.17,24.02-11.35,40.75-10,12.13.98,17.11,11.49,31.25,10.5,10.65-.75,16.73-9.83,27.5-10.5,13.16-.82,18.43,9.02,30.25,10.25,1.93.2,4.16-.15,6.12,0Z"/>
        <path class="st11" d="M256,232.25v5.75c-2.22-.04-4.68.06-6.88-.25-12.12-1.73-16.74-11.53-31-10-9.5,1.02-15.65,9.41-25.5,10.25-14.95,1.28-19.39-9.55-32-10.5-14.42-1.09-20.06,9.61-32.75,10.5-19.96,1.4-25.12-18.3-47.75-6.75-3.25,1.66-6.05,4.31-9.75,5.5-19.48,6.27-24.76-10.31-42-9.25-11.21.69-17.33,9.99-28.38,10.25v-5.5c10.28-.15,16.73-9.23,26.62-10.25,17.06-1.76,21.89,11.8,38.5,10.25,9.76-.91,15.65-9.39,25.75-10.25,16.55-1.41,22.22,14.16,42,9.5,6.41-1.51,11.04-6.72,17.25-8.5,19.88-5.69,24.98,10.93,43,9.25,9.03-.84,13.79-7.6,21.75-9.5,17-4.05,21.47,8.21,35.75,9.5,1.74.16,3.62-.12,5.38,0Z"/>
        <path class="st11" d="M256,189.5v5.75c-1.75-.12-3.64.16-5.38,0-12.37-1.14-17.82-11.21-31.5-10.25-10.58.74-16.75,9.86-27.5,10.5-13.55.8-18.57-9.43-30.25-10.5-16.38-1.49-22.09,11.57-38.75,10.25-12.19-.97-17.76-11.21-31.5-10.25-10.71.75-16.75,9.9-27.5,10.5-14.9.83-20.13-11.93-36.5-10.5-10.23.89-16.67,9.86-27.12,10.25v-5.75c10.45-.06,17.13-9.4,27.38-10.25,16.1-1.34,21.59,11.62,36.75,10.5,10.67-.79,16.68-9.83,27.5-10.5,13.08-.81,18.39,8.89,30.25,10.25,17.15,1.96,22.79-11.56,39-10.25,12.23.99,17.23,11.62,31.5,10.5,9.91-.78,15.82-8.99,25.25-10.25,14.78-1.98,19.31,8.38,32.25,10,1.85.23,4.24.11,6.12,0Z"/>
        <path class="st11" d="M256,104.25v5.75c-2.19-.06-4.71.06-6.88-.25-12.12-1.72-16.77-11.52-31-10-9.51,1.02-15.62,9.41-25.5,10.25-14.9,1.27-19.48-9.56-32-10.5-14.41-1.08-20.1,9.63-32.75,10.5-19.95,1.37-25.14-18.29-47.75-6.75-3.26,1.66-6.05,4.31-9.75,5.5-19.42,6.26-24.95-10.49-42.25-9.25-10.98.79-17.23,10.04-28.12,10.25v-5.5c10.28-.16,16.72-9.22,26.62-10.25,17.02-1.76,21.92,11.8,38.5,10.25,9.71-.91,15.71-9.4,25.75-10.25,13.87-1.18,19.35,9.27,31.75,10.25,16.96,1.34,22.51-12.06,39.25-10.25,9.39,1.01,15.39,9.27,24.5,10.25,15.7,1.68,19.97-9.25,32.75-10.25,13.56-1.06,19.09,9.08,31.5,10.25,1.72.16,3.63-.12,5.38,0Z"/>
        <path class="st11" d="M256,72.25v5.75c-2.19-.05-4.71.06-6.88-.25-12.09-1.71-16.71-11.5-31-10-9.51,1-15.58,9.41-25.5,10.25-15.02,1.26-19.5-9.65-32.25-10.5-15.22-1.01-21.42,11.61-37.25,10.5-14.56-1.02-19.16-13.8-36.5-9.5-5.88,1.46-10.16,6.09-15.5,8-19.7,7.03-25.36-10.07-42.75-9-11.17.69-17.36,10-28.38,10.25v-5.5c10.23-.11,16.83-9.23,26.62-10.25,17.02-1.76,21.92,11.8,38.5,10.25,9.77-.91,15.64-9.39,25.75-10.25,13.87-1.18,19.35,9.27,31.75,10.25,16.9,1.34,22.39-11.92,39-10.25,9.64.97,15.52,9.26,24.75,10.25,15.71,1.68,19.95-9.24,32.75-10.25,13.55-1.07,19.06,9.07,31.5,10.25,1.72.16,3.63-.12,5.38,0Z"/>
        <path class="st11" d="M256,221.5v5.75c-1.75-.12-3.64.16-5.38,0-12.33-1.14-17.84-11.23-31.5-10.25-10.71.77-16.75,9.96-27.75,10.5-13.4.65-18.4-9.44-30-10.5-16.4-1.5-22.33,11.7-39,10.25-11.99-1.04-17.45-11.08-31-10.25-11.1.68-17.02,10.11-28.5,10.5-14.45.49-19.49-11.9-35.75-10.5-10.16.88-16.69,9.87-27.12,10.25v-5.75c10.54-.09,17.03-9.39,27.38-10.25,16.06-1.33,21.6,11.63,36.75,10.5,10.63-.8,16.74-9.83,27.5-10.5,12.84-.8,17.44,8.09,28.5,10,18.37,3.18,24.01-11.35,40.75-10,12.15.98,17.13,11.51,31.25,10.5,10.56-.75,16.72-9.76,27.25-10.5,13.39-.94,18.57,9.03,30.5,10.25,1.93.2,4.16-.15,6.12,0Z"/>
        <path class="st11" d="M256,40.25v5.75c-2.23-.04-4.67.06-6.88-.25-12.11-1.72-16.76-11.52-31-10-9.52,1.02-15.58,9.4-25.5,10.25-14.87,1.27-19.49-9.56-32-10.5-14.4-1.08-20.02,9.61-32.75,10.5-19.92,1.39-25.15-18.29-47.75-6.75-2.97,1.52-5.69,4.07-9,5.25-19.65,7.02-25.36-10.05-42.75-9-11.19.67-17.34,10-28.38,10.25v-5.5c10.41-.23,16.79-9.28,26.88-10.25,16.9-1.62,21.72,11.8,38.25,10.25,9.76-.91,15.66-9.39,25.75-10.25,13.87-1.18,19.35,9.27,31.75,10.25,16.91,1.34,22.49-11.94,39-10.25,12.4,1.27,16.07,11.69,31.5,10.25,9.01-.84,13.8-7.59,21.75-9.5,16.88-4.06,21.49,8.15,35.75,9.5,1.72.16,3.63-.12,5.38,0Z"/>
        <path class="st11" d="M256,136.25v5.75c-2.23-.04-4.67.06-6.88-.25-12.09-1.72-16.72-11.5-31-10-9.5,1-15.58,9.4-25.5,10.25-14.9,1.27-19.47-9.56-32-10.5-14.43-1.08-20.01,9.61-32.75,10.5-19.88,1.39-25.14-18.3-47.75-6.75-2.97,1.52-5.69,4.07-9,5.25-19.65,7.02-25.36-10.05-42.75-9-11.19.67-17.28,9.97-28.38,10.25v-5.5c10.25-.11,16.81-9.24,26.62-10.25,17.05-1.75,21.91,11.8,38.5,10.25,9.8-.92,15.63-9.39,25.75-10.25,13.92-1.19,19.33,9.27,31.75,10.25,16.97,1.34,22.52-12.06,39.25-10.25,9.39,1.01,15.39,9.27,24.5,10.25,15.71,1.68,19.88-9.17,32.5-10.25,13.75-1.17,19.23,9.08,31.75,10.25,1.73.16,3.63-.12,5.38,0Z"/>
        <path class="st11" d="M256,200.25v5.75c-2.19-.05-4.71.06-6.88-.25-12.07-1.71-16.75-11.53-31-10-9.52,1.02-15.6,9.4-25.5,10.25-14.89,1.27-19.45-9.56-32-10.5-15.26-1.15-21.5,11.48-37.25,10.5-14.69-.91-19.37-13.79-36.75-9.5-6.05,1.5-10.5,6.41-16.25,8.25-19.43,6.23-24.81-10.33-42-9.25-11.2.71-17.32,9.97-28.38,10.25v-5.5c10.27-.13,16.77-9.23,26.62-10.25,17.05-1.76,21.91,11.8,38.5,10.25,9.74-.91,15.66-9.39,25.75-10.25,13.92-1.19,19.33,9.27,31.75,10.25,16.95,1.33,22.51-12.04,39.25-10.25,9.42,1.01,15.35,9.27,24.5,10.25,16.57,1.78,22-11.67,37.75-10.25,8.53.77,13.61,7.28,21.25,9.25,3.47.89,7.06,1.11,10.62,1Z"/>
        <path class="st11" d="M256,93.5v5.75c-1.75-.12-3.64.16-5.38,0-12.21-1.13-17.72-11.07-31.25-10.25-10.88.66-17.03,10.03-28.25,10.5-16.25.68-21.49-15.1-41-9.5-5.64,1.62-10.09,6.27-15.75,8-20.37,6.22-26.03-10.03-43-9-11.06.67-17.03,10.11-28.5,10.5-14.41.49-19.49-11.89-35.75-10.5-10.13.87-16.72,9.85-27.12,10.25v-5.75c10.43-.06,17.14-9.4,27.38-10.25,16.06-1.33,21.64,11.64,36.75,10.5,10.65-.81,16.72-9.83,27.5-10.5,12.84-.8,17.44,8.09,28.5,10,18.36,3.18,24-11.35,40.75-10,12.11.97,17.2,11.56,31.25,10.5,12.1-.91,17.58-11.51,31.5-10.5,8.82.64,13.67,7.16,21.5,9.25,3.56.95,7.21,1.12,10.88,1Z"/>
        <path class="st11" d="M256,243v5.5c-1.93.23-4.47.24-6.38,0-12.63-1.61-17.19-12.01-32-10-9.54,1.3-15.32,9.41-25.25,10.25-14.28,1.21-19.04-9.45-31.25-10.5-16.39-1.41-22.35,12.28-39.5,10.25-12.63-1.49-17.05-12-32-10-9.63,1.29-15.34,9.47-25.5,10.25-15.15,1.16-20.56-11.77-36.5-10.5-10.65.85-16.93,9.94-27.62,10.25v-5.75c10.59.01,17.22-9.37,27.62-10.25,17.06-1.45,22.33,14.24,41,9.75,7.19-1.73,12.35-7.87,20-9.25,15.58-2.81,20.99,9.15,35,10,15.64.95,21.88-11.78,37.25-10.5,10.32.86,16.28,9.73,26.75,10.5,17.78,1.3,24.29-16.68,44-8.25,2.82,1.21,5.57,3.69,8.25,5,4.99,2.43,10.57,3.34,16.12,3.25Z"/>
        <path class="st11" d="M256,18.75v5.75c-2.11-.17-4.55.23-6.62,0-11.38-1.27-16.82-11.22-30-10.25-12.42.92-17.58,11.75-32.25,10.5-8.83-.75-14.06-7.82-22-9.75-18.19-4.41-23.37,9.37-38.75,9.75-19.23.47-24-18.44-46.5-6.75-3.58,1.86-6.29,4.58-10.5,5.75-18.97,5.28-24.12-10.9-41.75-9.5-10.67.85-16.93,9.97-27.62,10.25v-5.75c10.55-.04,17.29-9.38,27.62-10.25,17.56-1.47,22.6,14.93,42,9.5,6.7-1.87,11.53-7.68,19-9,15.59-2.75,21,9.15,34.75,10,15.87.98,22.08-11.77,37.5-10.5,12.41,1.03,16.81,11.75,31.75,10.5,9.63-.81,15.17-8.44,24-10,15.25-2.7,19.82,8,32.75,9.75,2.01.27,4.62.39,6.62,0Z"/>
        <path class="st11" d="M41.25,0c7.8,5.27,13.96,9.18,23.88,8.25,6.91-.65,12.09-4.97,17.88-8.25h20.75c8.25,5.77,16.21,9.5,26.62,8,6.33-.91,11.55-4.84,16.88-8h21.75c8.13,5.09,13.93,9.2,24.12,8.25,6.91-.65,12.11-4.96,17.88-8.25h20.75c7.35,5.03,14.96,9.13,24.25,8.25v5.75c-2.23-.04-4.67.06-6.88-.25-12.11-1.72-16.72-11.5-31-10-9.5,1-15.6,9.41-25.5,10.25-15.01,1.27-19.46-9.6-32.25-10.5-15.19-1.07-21.4,11.61-37.25,10.5-14.59-1.02-19.03-13.73-36.5-9.5-6.09,1.48-10.47,6.4-16.25,8.25C50.92,18.99,45.66,2.47,28.38,3.5,17.18,4.17,11.12,13.46,0,13.75v-5.75c7.36.12,13.27-4.39,19.25-8h22Z"/>
        <path class="st3" d="M256,24.5v5c-3.61.38-7.39-.06-10.88-1-7.8-2.1-12.69-8.61-21.5-9.25-13.96-1.02-19.39,9.61-31.5,10.5-14.02,1.03-19.11-9.51-31.25-10.5-16.1-1.32-21.94,12.22-39,10.25-12.85-1.48-17.42-12-32.25-10-9.41,1.27-15.4,9.44-25.25,10.25-15.26,1.25-20.87-11.84-37-10.5-10.16.84-17.02,10.19-27.38,10.25v-5c10.69-.28,16.96-9.4,27.62-10.25,17.63-1.4,22.78,14.78,41.75,9.5,4.21-1.17,6.92-3.89,10.5-5.75,22.5-11.69,27.27,7.22,46.5,6.75,15.38-.38,20.56-14.16,38.75-9.75,7.94,1.93,13.17,9,22,9.75,14.67,1.25,19.83-9.58,32.25-10.5,13.18-.97,18.62,8.98,30,10.25,2.07.23,4.51-.17,6.62,0Z"/>
        <path class="st3" d="M256,248.5v5c-1.9-.13-4.01.18-5.88,0-12.01-1.15-17.11-10.93-30.25-10.25-10.92.57-17.03,9.72-27.75,10.5-14.15,1.03-19.21-9.66-31.5-10.5-16.7-1.14-21.94,12.96-40.25,10-12.24-1.98-16.02-11.69-30.75-9.75-9.49,1.25-15.39,9.52-25.5,10.25-15.17,1.1-20.43-11.62-36.25-10.5-10.94.77-16.93,10.03-27.88,10.25v-5c10.7-.31,16.98-9.4,27.62-10.25,15.94-1.27,21.35,11.66,36.5,10.5,10.16-.78,15.87-8.96,25.5-10.25,14.95-2,19.37,8.51,32,10,17.15,2.03,23.11-11.66,39.5-10.25,12.21,1.05,16.97,11.71,31.25,10.5,9.93-.84,15.71-8.95,25.25-10.25,14.81-2.01,19.37,8.39,32,10,1.91.24,4.45.23,6.38,0Z"/>
        <path class="st3" d="M256,184.5v5c-1.89.11-4.27.23-6.12,0-12.94-1.62-17.47-11.98-32.25-10-9.43,1.26-15.34,9.47-25.25,10.25-14.27,1.12-19.27-9.51-31.5-10.5-16.21-1.31-21.85,12.21-39,10.25-11.86-1.36-17.17-11.06-30.25-10.25-10.82.67-16.83,9.71-27.5,10.5-15.16,1.12-20.65-11.84-36.75-10.5-10.25.85-16.92,10.19-27.38,10.25v-5c10.73-.31,16.97-9.42,27.62-10.25,16.04-1.24,21.39,11.78,36.75,10.5,9.86-.82,15.74-8.98,25.25-10.25,14.83-1.98,19.29,8.42,31.75,10,17.3,2.19,23.28-11.68,39.75-10.25,12.21,1.06,16.92,11.69,31.25,10.5,10.33-.86,16.48-9.74,27-10.5,13.05-.94,18.43,8.69,30,10.25,1.94.26,4.65.2,6.62,0Z"/>
        <path class="st3" d="M256,216.5v5c-1.97-.15-4.19.2-6.12,0-11.93-1.22-17.11-11.19-30.5-10.25-10.53.74-16.69,9.75-27.25,10.5-14.12,1.01-19.1-9.52-31.25-10.5-16.74-1.35-22.38,13.18-40.75,10-11.06-1.91-15.66-10.8-28.5-10-10.76.67-16.87,9.7-27.5,10.5-15.15,1.13-20.69-11.83-36.75-10.5-10.35.86-16.83,10.16-27.38,10.25v-5c10.73-.32,16.97-9.4,27.62-10.25,15.99-1.27,21.44,11.8,36.75,10.5,9.84-.84,15.78-8.98,25.25-10.25,15.62-2.1,21.58,10.92,37.25,10.25s20.18-14.14,38.25-9.75c7.97,1.94,13.18,9,22,9.75,14.66,1.25,19.85-9.6,32.25-10.5,13.19-.96,18.38,8.71,30,10.25,1.94.26,4.65.21,6.62,0Z"/>
        <path class="st3" d="M256,88.5v5c-3.67.12-7.32-.05-10.88-1-7.83-2.09-12.68-8.61-21.5-9.25-13.92-1.01-19.4,9.59-31.5,10.5-14.05,1.06-19.14-9.53-31.25-10.5-16.75-1.35-22.39,13.18-40.75,10-11.06-1.91-15.66-10.8-28.5-10-10.78.67-16.85,9.69-27.5,10.5-15.11,1.14-20.69-11.83-36.75-10.5-10.24.85-16.94,10.19-27.38,10.25v-5c10.73-.32,16.97-9.4,27.62-10.25,17.56-1.39,22.87,14.76,41.75,9.5,4.24-1.18,7.27-4.1,11-6,22.22-11.34,27.59,8.13,47,7,13.17-.77,18.64-11.83,33.75-10.5,12.17,1.07,16.87,11.7,31.25,10.5,10.27-.86,16.51-9.73,27-10.5,13.08-.96,18.45,8.75,30,10.25,1.93.25,4.65.17,6.62,0Z"/>
        <path class="st3" d="M256,56.5v5c-1.97-.15-4.19.2-6.12,0-11.82-1.23-17.09-11.07-30.25-10.25-10.77.67-16.85,9.75-27.5,10.5-14.14.99-19.12-9.52-31.25-10.5-16.73-1.35-22.4,13.17-40.75,10-11.03-1.91-15.64-10.8-28.5-10-10.83.67-16.86,9.74-27.5,10.5-15.2,1.08-20.69-11.83-36.75-10.5-10.25.85-16.92,10.21-27.38,10.25v-5c10.71-.3,16.99-9.4,27.62-10.25,15.89-1.27,21.34,11.65,36.5,10.5,10.14-.77,15.91-8.96,25.5-10.25,14.77-1.99,19.29,8.4,31.75,10,17.26,2.21,23.33-11.68,39.75-10.25,12.09,1.05,16.94,11.69,31.25,10.5,10.29-.85,16.52-9.74,27-10.5,13.04-.94,18.48,8.73,30,10.25,1.95.26,4.63.13,6.62,0Z"/>
        <path class="st3" d="M256,67.25v5c-1.74-.12-3.65.16-5.38,0-12.44-1.18-17.95-11.32-31.5-10.25-12.8,1.01-17.04,11.93-32.75,10.25-9.23-.99-15.11-9.28-24.75-10.25-16.61-1.67-22.1,11.59-39,10.25-12.4-.98-17.88-11.43-31.75-10.25-10.11.86-15.98,9.34-25.75,10.25-16.58,1.55-21.48-12.01-38.5-10.25-9.8,1.02-16.39,10.14-26.62,10.25v-5c10.29-.34,17.09-9.37,27.12-10.25,16.28-1.42,21.52,11.2,36.25,10.5,10.97-.52,17.06-9.82,28-10.5,13.52-.84,19.02,9.21,31,10.25,16.7,1.45,22.64-11.78,39-10.25,11.59,1.08,16.62,11.16,30,10.5,11.01-.55,17.04-9.73,27.75-10.5,13.66-.98,19.32,9.21,31.75,10.25,1.69.14,3.44-.1,5.12,0Z"/>
        <path class="st3" d="M256,120.5v5c-1.88.18-4.27.24-6.12,0-11.92-1.53-17.3-11.06-30.25-10.25s-17.9,12.52-33.75,10.25c-9.12-1.31-14.99-9.4-24.75-10.25-16.33-1.43-22.09,12.21-39.25,10.25-11.88-1.36-17.15-11.06-30.25-10.25-10.77.67-16.84,9.69-27.5,10.5-15.07,1.14-20.7-11.83-36.75-10.5-10.24.85-16.93,10.18-27.38,10.25v-5c10.73-.32,16.97-9.4,27.62-10.25,19.35-1.54,24.81,18.43,47,7.25,1.82-.92,3.91-2.81,5.75-3.75,22.19-11.35,27.59,8.13,47,7,13.18-.77,18.64-11.84,33.75-10.5,12.12,1.07,16.94,11.69,31.25,10.5,9.86-.82,15.72-8.9,25-10.25,14.78-2.14,19.51,8.35,32,10,1.94.26,4.65.21,6.62,0Z"/>
        <path class="st3" d="M256,227.25v5c-1.75-.12-3.64.16-5.38,0-14.28-1.29-18.75-13.55-35.75-9.5-7.96,1.9-12.72,8.66-21.75,9.5-18.02,1.68-23.12-14.94-43-9.25-6.21,1.78-10.84,6.99-17.25,8.5-19.78,4.66-25.45-10.91-42-9.5-10.1.86-15.99,9.34-25.75,10.25-16.61,1.55-21.44-12.01-38.5-10.25-9.9,1.02-16.34,10.1-26.62,10.25v-5c10.43-.38,16.97-9.37,27.12-10.25,16.26-1.4,21.3,10.99,35.75,10.5,11.48-.39,17.4-9.82,28.5-10.5,13.55-.83,19.01,9.21,31,10.25,16.67,1.45,22.6-11.75,39-10.25,11.6,1.06,16.6,11.15,30,10.5,11-.54,17.04-9.73,27.75-10.5,13.66-.98,19.17,9.11,31.5,10.25,1.74.16,3.62-.12,5.38,0Z"/>
        <path class="st3" d="M256,14v4.75c-2.01.39-4.61.27-6.62,0-12.93-1.75-17.5-12.45-32.75-9.75-8.83,1.56-14.37,9.19-24,10-14.94,1.25-19.34-9.47-31.75-10.5-15.42-1.27-21.63,11.48-37.5,10.5-13.75-.85-19.16-12.75-34.75-10-7.47,1.32-12.3,7.13-19,9-19.4,5.43-24.44-10.97-42-9.5-10.34.87-17.07,10.21-27.62,10.25v-5c11.12-.29,17.18-9.58,28.38-10.25,17.28-1.03,22.54,15.49,42,9.25,5.78-1.85,10.16-6.77,16.25-8.25,17.47-4.23,21.91,8.48,36.5,9.5,15.85,1.11,22.06-11.57,37.25-10.5,12.79.9,17.24,11.77,32.25,10.5,9.9-.84,16-9.25,25.5-10.25,14.28-1.5,18.89,8.28,31,10,2.21.31,4.64.21,6.88.25Z"/>
        <path class="st3" d="M256,152.5v5c-1.97-.15-4.19.2-6.12,0-11.85-1.23-17.05-11.07-30.25-10.25s-17.88,12.48-33.75,10.25c-8.06-1.13-13.21-7.68-20.75-9.5-18.19-4.39-22.95,9.12-38,9.75-19.33.81-24.73-18.3-46.75-7-2.82,1.45-5.25,3.79-8.25,5-20.22,8.16-26.28-10.03-44.75-8.5-10.24.85-16.93,10.2-27.38,10.25v-5c10.73-.32,16.97-9.4,27.62-10.25,19.35-1.54,24.85,18.43,47,7.25,1.82-.92,3.88-2.8,5.75-3.75,22.16-11.29,27.43,7.93,46.75,7,13.31-.64,18.86-11.82,34-10.5,12.09,1.05,16.81,11.57,31,10.5,10.52-.79,16.69-9.74,27.25-10.5,13.08-.95,18.47,8.76,30,10.25,1.98.26,4.61.17,6.62,0Z"/>
        <path class="st3" d="M256,131.25v5c-1.75-.12-3.65.16-5.38,0-12.52-1.17-18-11.42-31.75-10.25-12.62,1.08-16.79,11.93-32.5,10.25-9.11-.98-15.11-9.24-24.5-10.25-16.73-1.81-22.28,11.59-39.25,10.25-12.42-.98-17.83-11.44-31.75-10.25-10.12.86-15.95,9.33-25.75,10.25-16.59,1.55-21.45-12-38.5-10.25-9.82,1.01-16.38,10.14-26.62,10.25v-5c10.32-.32,16.99-9.36,27.12-10.25,16.37-1.44,21.66,11.38,36.5,10.5,10.73-.64,16.82-9.74,27.5-10.5,17.05-1.21,22.81,15.24,43.25,9,5.67-1.73,10.1-6.39,15.75-8,19.72-5.61,24.94,10.42,41.25,9.5,11.17-.63,17.1-9.84,28-10.5,13.52-.82,19.01,9.16,31.25,10.25,1.75.16,3.61-.11,5.38,0Z"/>
        <path class="st3" d="M256,163.25v5c-1.75-.12-3.64.16-5.38,0-14.3-1.3-18.71-13.56-35.75-9.5-7.96,1.9-12.68,8.64-21.75,9.5-15.43,1.47-19.05-8.93-31.25-10.25-16.76-1.81-22.27,11.59-39.25,10.25-12.4-.98-17.88-11.43-31.75-10.25-10.11.86-15.98,9.34-25.75,10.25-16.59,1.55-21.42-12-38.5-10.25-9.91,1.01-16.35,10.13-26.62,10.25v-5c10.44-.38,16.96-9.37,27.12-10.25,16.38-1.42,21.61,11.33,36.5,10.5,10.82-.61,16.91-9.85,27.75-10.5,13.61-.82,19.06,9.21,31,10.25,16.68,1.45,22.65-11.74,39-10.25,11.47,1.05,16.61,11.08,29.75,10.5,11.28-.5,17.3-9.83,28.25-10.5,13.52-.82,19.07,9.13,31.25,10.25,1.74.16,3.62-.12,5.38,0Z"/>
        <path class="st3" d="M256,99.25v5c-1.74-.12-3.65.16-5.38,0-12.41-1.17-17.94-11.31-31.5-10.25-12.78,1-17.05,11.93-32.75,10.25-9.11-.98-15.11-9.24-24.5-10.25-16.74-1.81-22.29,11.59-39.25,10.25-12.4-.98-17.88-11.43-31.75-10.25-10.04.85-16.04,9.34-25.75,10.25-16.58,1.55-21.48-12.01-38.5-10.25-9.91,1.03-16.34,10.09-26.62,10.25v-5c10.4-.4,17-9.38,27.12-10.25,16.26-1.39,21.34,10.99,35.75,10.5,11.47-.39,17.44-9.83,28.5-10.5,16.97-1.03,22.63,15.22,43,9,5.66-1.73,10.11-6.38,15.75-8,19.51-5.6,24.75,10.18,41,9.5,11.22-.47,17.37-9.84,28.25-10.5,13.53-.82,19.04,9.12,31.25,10.25,1.74.16,3.62-.12,5.38,0Z"/>
        <path class="st3" d="M256,195.25v5c-3.57.11-7.16-.11-10.62-1-7.64-1.97-12.72-8.48-21.25-9.25-15.75-1.42-21.18,12.03-37.75,10.25-9.15-.98-15.08-9.24-24.5-10.25-16.74-1.79-22.3,11.58-39.25,10.25-12.42-.98-17.83-11.44-31.75-10.25-10.09.86-16.01,9.34-25.75,10.25-16.59,1.55-21.45-12.01-38.5-10.25-9.85,1.02-16.36,10.12-26.62,10.25v-5c10.46-.39,16.89-9.36,27.12-10.25,16.37-1.43,21.6,11.33,36.5,10.5,10.75-.6,16.79-9.75,27.5-10.5,13.74-.96,19.31,9.28,31.5,10.25,16.66,1.32,22.37-11.74,38.75-10.25,11.68,1.07,16.7,11.3,30.25,10.5,10.75-.64,16.92-9.76,27.5-10.5,13.68-.96,19.13,9.11,31.5,10.25,1.74.16,3.62-.12,5.38,0Z"/>
        <path class="st3" d="M256,46v4.75c-1.98.36-4.39.26-6.38,0-13.09-1.69-17.77-12.46-33-9.75-8.75,1.56-14.38,9.16-23.75,10-15.12,1.35-19.49-9.48-32-10.5-15.38-1.25-21.69,11.49-37.5,10.5-13.78-.87-19.18-12.79-34.75-10-7.5,1.35-12.32,7.13-19,9-19.33,5.41-24.52-10.97-42-9.5-10.34.87-17.13,10.24-27.62,10.25v-5c11.03-.25,17.19-9.58,28.38-10.25,17.39-1.05,23.1,16.02,42.75,9,3.31-1.18,6.03-3.73,9-5.25,22.6-11.54,27.83,8.14,47.75,6.75,12.73-.89,18.35-11.58,32.75-10.5,12.51.94,17.13,11.77,32,10.5,9.92-.85,15.98-9.23,25.5-10.25,14.24-1.52,18.89,8.28,31,10,2.21.31,4.64.21,6.88.25Z"/>
        <path class="st3" d="M256,206v4.75c-1.97.36-4.66.27-6.62,0-12.92-1.76-17.53-12.51-32.75-9.75-8.76,1.59-14.41,9.15-23.75,10-15.08,1.37-19.53-9.48-32-10.5-15.42-1.26-21.67,11.5-37.5,10.5-13.79-.87-19.14-12.81-34.75-10-8.88,1.6-14.45,9.2-24,10-15.81,1.33-21.17-11.83-37-10.5-10.51.88-16.94,10.18-27.62,10.25v-5c11.05-.28,17.17-9.54,28.38-10.25,17.19-1.08,22.57,15.48,42,9.25,5.75-1.84,10.2-6.75,16.25-8.25,17.38-4.29,22.06,8.59,36.75,9.5,15.75.98,21.99-11.65,37.25-10.5,12.55.94,17.11,11.77,32,10.5,9.9-.85,15.98-9.23,25.5-10.25,14.25-1.53,18.93,8.29,31,10,2.16.31,4.68.2,6.88.25Z"/>
        <path class="st3" d="M256,142v4.75c-1.97.36-4.66.27-6.62,0-12.87-1.76-17.59-12.5-32.75-9.75-8.89,1.61-14.36,9.19-24,10-14.9,1.25-19.36-9.49-31.75-10.5-15.4-1.25-21.68,11.5-37.5,10.5-13.8-.87-19.17-12.82-34.75-10-8.91,1.61-14.42,9.19-24,10-15.76,1.33-21.07-11.71-36.75-10.5-10.71.83-17.06,10.12-27.88,10.25v-5c11.09-.28,17.19-9.58,28.38-10.25,17.39-1.05,23.1,16.02,42.75,9,3.31-1.18,6.03-3.73,9-5.25,22.61-11.55,27.87,8.14,47.75,6.75,12.74-.89,18.32-11.58,32.75-10.5,12.53.94,17.1,11.77,32,10.5,9.92-.85,16-9.25,25.5-10.25,14.28-1.5,18.91,8.28,31,10,2.21.31,4.64.21,6.88.25Z"/>
        <path class="st3" d="M256,35.25v5c-1.74-.12-3.65.16-5.38,0-14.26-1.35-18.87-13.56-35.75-9.5-7.95,1.91-12.74,8.66-21.75,9.5-15.43,1.44-19.1-8.98-31.5-10.25-16.51-1.69-22.09,11.59-39,10.25-12.4-.98-17.88-11.43-31.75-10.25-10.09.86-15.99,9.34-25.75,10.25-16.53,1.55-21.35-11.87-38.25-10.25-10.08.97-16.46,10.02-26.88,10.25v-5c10.53-.44,17.01-9.41,27.38-10.25,16.13-1.31,21.24,11.12,35.75,10.5,11.29-.48,17.38-9.92,28.5-10.5,16.82-.88,22.4,15.21,42.75,9,5.66-1.73,10.11-6.38,15.75-8,19.58-5.63,24.83,10.3,41.25,9.5,10.82-.53,17.5-9.93,28.25-10.5,13.36-.7,18.83,9.13,31,10.25,1.74.16,3.62-.12,5.38,0Z"/>
        <path class="st3" d="M256,110v4.75c-2,.39-4.62.28-6.62,0-12.94-1.78-17.54-12.51-32.75-9.75-8.88,1.61-14.38,9.19-24,10-14.9,1.25-19.33-9.47-31.75-10.5-15.43-1.28-21.64,11.5-37.5,10.5-13.81-.87-19.11-12.81-34.75-10-8.92,1.6-14.38,9.19-24,10-15.76,1.33-21.07-11.71-36.75-10.5-10.71.83-17.12,10.16-27.88,10.25v-5c10.89-.21,17.15-9.46,28.12-10.25,17.3-1.24,22.83,15.51,42.25,9.25,3.7-1.19,6.49-3.84,9.75-5.5,22.61-11.54,27.8,8.12,47.75,6.75,12.65-.87,18.34-11.58,32.75-10.5,12.52.94,17.1,11.77,32,10.5,9.88-.84,15.99-9.23,25.5-10.25,14.23-1.52,18.88,8.28,31,10,2.16.31,4.68.19,6.88.25Z"/>
        <path class="st3" d="M256,78v4.75c-1.93.39-4.43.25-6.38,0-13.1-1.72-17.82-12.47-33-9.75-8.88,1.59-14.35,9.2-24,10-14.93,1.23-19.36-9.49-31.75-10.5-15.4-1.25-21.5,11.36-37.25,10.5-13.93-.76-19.36-12.79-35-10-8.84,1.58-14.43,9.2-24,10-15.76,1.33-21.07-11.71-36.75-10.5-10.71.83-17.12,10.16-27.88,10.25v-5c11.01-.25,17.21-9.56,28.38-10.25,17.39-1.07,23.05,16.03,42.75,9,5.34-1.91,9.62-6.54,15.5-8,17.34-4.3,21.94,8.48,36.5,9.5,15.83,1.11,22.03-11.51,37.25-10.5,12.75.85,17.23,11.76,32.25,10.5,9.92-.84,15.99-9.25,25.5-10.25,14.29-1.5,18.91,8.29,31,10,2.16.31,4.68.2,6.88.25Z"/>
        <path class="st3" d="M256,238v5c-5.56.09-11.14-.82-16.12-3.25-2.68-1.31-5.43-3.79-8.25-5-19.71-8.43-26.22,9.55-44,8.25-10.47-.77-16.43-9.64-26.75-10.5-15.37-1.28-21.61,11.45-37.25,10.5-14.01-.85-19.42-12.81-35-10-7.65,1.38-12.81,7.52-20,9.25-18.67,4.49-23.94-11.2-41-9.75-10.4.88-17.03,10.26-27.62,10.25v-5c11.04-.26,17.17-9.56,28.38-10.25,17.24-1.06,22.52,15.52,42,9.25,3.7-1.19,6.5-3.84,9.75-5.5,22.63-11.55,27.79,8.15,47.75,6.75,12.69-.89,18.33-11.59,32.75-10.5,12.61.95,17.05,11.78,32,10.5,9.85-.84,16-9.23,25.5-10.25,14.26-1.53,18.88,8.27,31,10,2.2.31,4.65.21,6.88.25Z"/>
        <path class="st3" d="M256,174v4.75c-1.98.36-4.39.26-6.38,0-13.04-1.68-17.82-12.5-33-9.75-8.74,1.58-14.39,9.15-23.75,10-15.09,1.37-19.5-9.48-32-10.5-15.47-1.26-21.64,11.52-37.5,10.5-13.77-.89-19.13-12.81-34.75-10-8.76,1.58-14.5,9.17-23.75,10-15.99,1.43-21.35-11.82-37.25-10.5-10.34.86-17.13,10.25-27.62,10.25v-5c11.05-.25,17.17-9.55,28.38-10.25,17.36-1.08,23.08,16.02,42.75,9,3.31-1.18,5.96-3.7,9-5.25,22.51-11.51,27.68,7.95,47.5,6.75,12.85-.78,18.55-11.59,33-10.5,12.6.95,17.03,11.78,32,10.5,9.92-.85,15.98-9.23,25.5-10.25,14.26-1.53,18.88,8.27,31,10,2.2.31,4.65.21,6.88.25Z"/>
        <path class="st11" d="M256,253.5v2.5h-16.25c-11.26-9.07-25.53-9.29-36.75,0h-26c-11.14-9.42-26.61-9.24-37.75,0h-27.5c-11.25-9.04-25.6-9.35-36.75,0h-26c-11.12-9.41-26.63-9.25-37.75,0H0v-2.5c10.95-.22,16.93-9.48,27.88-10.25,15.82-1.12,21.08,11.6,36.25,10.5,10.11-.73,16.01-9,25.5-10.25,14.73-1.94,18.51,7.77,30.75,9.75,18.31,2.96,23.55-11.14,40.25-10,12.29.84,17.35,11.53,31.5,10.5,10.72-.78,16.83-9.93,27.75-10.5,13.14-.68,18.24,9.1,30.25,10.25,1.87.18,3.98-.13,5.88,0Z"/>
        <path class="st3" d="M112.25,0c7.84,4.36,18.4,4.49,26.25,0h8.75c-5.33,3.16-10.55,7.09-16.88,8-10.42,1.5-18.37-2.23-26.62-8h8.5Z"/>
        <path class="st3" d="M49.5,0c7.27,4.74,17.64,4.42,25,0h8.5c-5.78,3.28-10.96,7.6-17.88,8.25-9.91.93-16.08-2.98-23.88-8.25h8.25Z"/>
        <path class="st3" d="M177.5,0c7.11,4.66,17.69,4.57,24.75,0h8.75c-5.77,3.29-10.97,7.6-17.88,8.25-10.19.95-15.99-3.16-24.12-8.25h8.5Z"/>
        <path class="st3" d="M49,256h-8.75c-6.08-2.89-14.16-2.76-20.25,0h-8.75c11.12-9.25,26.63-9.41,37.75,0Z"/>
        <path class="st3" d="M177,256h-8.75c-6.06-2.86-14.2-2.78-20.25,0h-8.75c11.14-9.24,26.61-9.42,37.75,0Z"/>
        <path class="st3" d="M111.75,256h-9c-5.64-2.77-13.13-2.72-18.75,0h-9c11.15-9.35,25.5-9.04,36.75,0Z"/>
        <path class="st3" d="M239.75,256h-9c-5.46-2.82-13.21-2.69-18.75,0h-9c11.22-9.29,25.49-9.07,36.75,0Z"/>
        <path class="st3" d="M240.5,0c4.4,2.92,10.27,3.36,15.5,3.25v5c-9.29.88-16.9-3.22-24.25-8.25h8.75Z"/>
        <path class="st3" d="M19.25,0C13.27,3.61,7.36,8.12,0,8V3.25c3.63-.52,7.4-1.16,10.5-3.25h8.75Z"/>
        <path class="st11" d="M138.5,0c-7.85,4.49-18.41,4.36-26.25,0h26.25Z"/>
        <path class="st11" d="M202.25,0c-7.06,4.57-17.64,4.66-24.75,0h24.75Z"/>
        <path class="st9" d="M74.5,0c-7.36,4.42-17.73,4.74-25,0h25Z"/>
        <path class="st11" d="M240.5,0h15.5v3.25c-5.23.11-11.1-.33-15.5-3.25Z"/>
        <path class="st11" d="M40.25,256h-20.25c6.09-2.76,14.17-2.89,20.25,0Z"/>
        <path class="st11" d="M168.25,256h-20.25c6.05-2.78,14.19-2.86,20.25,0Z"/>
        <path class="st11" d="M230.75,256h-18.75c5.54-2.69,13.29-2.82,18.75,0Z"/>
        <path class="st11" d="M102.75,256h-18.75c5.62-2.72,13.11-2.77,18.75,0Z"/>
        <path class="st11" d="M10.5,0C7.4,2.09,3.63,2.73,0,3.25V0h10.5Z"/>
      </g>
    </pattern>
  </defs>
  <path class="st1" d="M23.18-96.04"/>
  <path class="st1" d="M76.39-132.32"/>
  <g>
    <rect class="st4" x="84.98" y="80.9" width="20.84" height="72.94"/>
    <rect class="st2" x="84.98" y="153.83" width="20.84" height="35.32"/>
    <rect class="st4" x="221.39" y="80.9" width="20.84" height="72.94"/>
    <rect class="st2" x="221.39" y="153.83" width="20.84" height="35.32"/>
    <path class="st4" d="M105.82,80.9c0-14.47,8.83-26.2,19.73-26.2s19.73,11.73,19.73,26.2h20.81c0-26.2-18.16-47.44-40.55-47.44s-40.55,21.24-40.55,47.44h20.84Z"/>
    <path class="st4" d="M242.23,80.9c0-26.2-18.16-47.44-40.55-47.44s-40.55,21.24-40.55,47.44h20.84c0-14.47,8.83-26.2,19.73-26.2s19.73,11.73,19.73,26.2h20.81Z"/>
    <g>
      <rect class="st3" x="20.22" y="21.81" width="35.05" height="11.64" rx="3" ry="3"/>
      <rect class="st2" x="20.22" y="21.81" width="35.05" height="11.64" rx="3" ry="3"/>
    </g>
    <g>
      <rect class="st3" x="14.38" y="44.32" width="46.21" height="18.84" rx="3" ry="3"/>
      <rect class="st2" x="14.38" y="44.32" width="46.21" height="18.84" rx="3" ry="3"/>
    </g>
    <g>
      <rect class="st3" x="27.11" y="33.45" width="21.28" height="10.86" rx="3" ry="3"/>
      <rect class="st2" x="27.11" y="33.45" width="21.28" height="10.86" rx="3" ry="3"/>
    </g>
    <polygon class="st4" points="33.99 63.16 33.99 166.25 40.42 161.15 40.42 63.16 33.99 63.16"/>
    <polygon class="st7" points="40.42 161.15 40.42 189.15 33.99 179.55 33.99 166.25 40.42 161.15"/>
    <ellipse class="st5" cx="433.61" cy="55.4" rx="46.2" ry="44.34"/>
    <ellipse class="st6" cx="434.1" cy="55.08" rx="19.55" ry="17.53"/>
    <g>
      <rect class="st10" x="421.54" y="70.14" width="24.35" height="119.01" rx="3" ry="3"/>
      <rect class="st2" x="421.54" y="70.14" width="24.35" height="119.01" rx="3" ry="3"/>
    </g>
    <rect class="st8" x="338.15" y="136.1" width="22.39" height="53.06"/>
    <polygon class="st8" points="319.97 33.45 319.97 55.4 299.51 55.4 299.51 98.19 309.74 98.19 310 119.25 298.69 119.25 298.69 189.15 276.52 189.15 276.52 33.45 319.97 33.45"/>
    <path class="st8" d="M309.74,98.19l.26,21.06h9.58c25.95,0,46.98-19.21,46.98-42.9s-20.64-42.9-46.59-42.9v21.95h-.06c13.63,0,24.68,9.58,24.68,21.39s-11.05,21.39-24.68,21.39h-10.17Z"/>
    <path class="st8" d="M360.54,136.1c0-20.58-22.52-37.91-51.02-37.91l.26,21.06c15.85,0,28.38,7.7,28.38,16.85h22.39Z"/>
    <rect class="st2" x="276.52" y="98.19" width="33.25" height="21.06"/>
    <rect class="st2" x="276.52" y="33.45" width="43.45" height="21.95"/>
  </g>
</svg>